<svg width="103" height="118" viewBox="0 0 103 118" fill="none" xmlns="http://www.w3.org/2000/svg">
  <path
    d="M79.9759 77.8153V44.5471C79.9759 38.3309 85.0163 33.2905 91.0638 33.2905C97.2822 33.2905 102.323 38.3309 102.323 44.3807V105.2C102.323 109.065 101.482 112.426 98.1207 115.281C95.4319 117.297 91.2324 118.81 86.5293 116.459C84.0091 115.114 82.6647 113.601 80.8167 111.418L22.5153 40.0103V106.544C22.5153 112.594 17.4749 117.635 11.2587 117.635C5.20895 117.635 0.168579 112.594 0.168579 106.544V13.4641C0.168579 9.26455 0.672154 4.22417 6.04976 1.36903C10.2493 -0.984809 15.7932 -0.647574 21.0022 5.39996L79.9759 77.8153Z"
    fill="#D9E0E8" />
  <path
    d="M102.323 11.1125C102.323 17.3286 97.2821 22.2027 91.2323 22.2027C85.0162 22.2027 79.9758 17.3286 79.9758 11.1125C79.9758 4.89635 85.0162 0.0245972 91.2323 0.0245972C97.2821 0.0245972 102.323 4.89635 102.323 11.1125Z"
    fill="#007FFF" />
</svg>